999
dxflib 2.2.0.0
  0
SECTION
  2
HEADER
  9
$ACADVER
  1
AC1015
  9
$HANDSEED
  5
FFFF
  9
$DIMASZ
 40
2.5
  9
$PLIMMIN
 10
0.0
 20
0.0
  9
$DIMEXE
 40
1.25
  9
$DIMGAP
 40
0.625
  9
$PLIMMAX
 10
210.0
 20
297.0
  9
$INSUNITS
 70
0
  9
$DIMSTYLE
  2
Standard
  9
$MEASUREMENT
 70
1
  9
$DIMEXO
 40
0.625
  9
$DIMTXT
 40
2.5
  0
ENDSEC
  0
SECTION
  2
TABLES
  0
TABLE
  2
VPORT
  5
8
100
AcDbSymbolTable
 70
1
  0
VPORT
  5
30
100
AcDbSymbolTableRecord
100
AcDbViewportTableRecord
  2
*Active
 70
0
 10
0.0
 20
0.0
 11
1.0
 21
1.0
 12
286.3055555555554861
 22
148.5
 13
0.0
 23
0.0
 14
10.0
 24
10.0
 15
10.0
 25
10.0
 16
0.0
 26
0.0
 36
1.0
 17
0.0
 27
0.0
 37
0.0
 40
297.0
 41
1.92798353909465
 42
50.0
 43
0.0
 44
0.0
 50
0.0
 51
0.0
 71
0
 72
100
 73
1
 74
3
 75
1
 76
1
 77
0
 78
0
281
0
 65
1
110
0.0
120
0.0
130
0.0
111
1.0
121
0.0
131
0.0
112
0.0
122
1.0
132
0.0
 79
0
146
0.0
  0
ENDTAB
  0
TABLE
  2
LTYPE
  5
5
100
AcDbSymbolTable
 70
21
  0
LTYPE
  5
14
100
AcDbSymbolTableRecord
100
AcDbLinetypeTableRecord
  2
ByBlock
 70
0
  3

 72
65
 73
0
 40
0.0
  0
LTYPE
  5
15
100
AcDbSymbolTableRecord
100
AcDbLinetypeTableRecord
  2
ByLayer
 70
0
  3

 72
65
 73
0
 40
0.0
  0
LTYPE
  5
16
100
AcDbSymbolTableRecord
100
AcDbLinetypeTableRecord
  2
CONTINUOUS
 70
0
  3
Solid line
 72
65
 73
0
 40
0.0
  0
LTYPE
  5
31
100
AcDbSymbolTableRecord
100
AcDbLinetypeTableRecord
  2
DOT
 70
0
  3
Dot . . . . . . . . . . . . . . . . . . . . . .
 72
65
 73
2
 40
6.3499999999999996
 49
0.0
 74
0
 49
-6.3499999999999996
 74
0
  0
LTYPE
  5
32
100
AcDbSymbolTableRecord
100
AcDbLinetypeTableRecord
  2
DOT2
 70
0
  3
Dot (.5x) .....................................
 72
65
 73
2
 40
3.1749999999999998
 49
0.0
 74
0
 49
-3.1749999999999998
 74
0
  0
LTYPE
  5
33
100
AcDbSymbolTableRecord
100
AcDbLinetypeTableRecord
  2
DOTX2
 70
0
  3
Dot (2x) .  .  .  .  .  .  .  .  .  .  .  .  .
 72
65
 73
2
 40
12.6999999999999993
 49
0.0
 74
0
 49
-12.6999999999999993
 74
0
  0
LTYPE
  5
34
100
AcDbSymbolTableRecord
100
AcDbLinetypeTableRecord
  2
DASHED
 70
0
  3
Dashed __ __ __ __ __ __ __ __ __ __ __ __ __ _
 72
65
 73
2
 40
19.0500000000000007
 49
12.6999999999999993
 74
0
 49
-6.3499999999999996
 74
0
  0
LTYPE
  5
35
100
AcDbSymbolTableRecord
100
AcDbLinetypeTableRecord
  2
DASHED2
 70
0
  3
Dashed (.5x) _ _ _ _ _ _ _ _ _ _ _ _ _ _ _ _ _
 72
65
 73
2
 40
9.5250000000000004
 49
6.3499999999999996
 74
0
 49
-3.1749999999999998
 74
0
  0
LTYPE
  5
36
100
AcDbSymbolTableRecord
100
AcDbLinetypeTableRecord
  2
DASHEDX2
 70
0
  3
Dashed (2x) ____  ____  ____  ____  ____  ___
 72
65
 73
2
 40
38.1000000000000014
 49
25.3999999999999986
 74
0
 49
-12.6999999999999993
 74
0
  0
LTYPE
  5
37
100
AcDbSymbolTableRecord
100
AcDbLinetypeTableRecord
  2
DASHDOT
 70
0
  3
Dash dot __ . __ . __ . __ . __ . __ . __ . __
 72
65
 73
4
 40
25.3999999999999986
 49
12.6999999999999993
 74
0
 49
-6.3499999999999996
 74
0
 49
0.0
 74
0
 49
-6.3499999999999996
 74
0
  0
LTYPE
  5
38
100
AcDbSymbolTableRecord
100
AcDbLinetypeTableRecord
  2
DASHDOT2
 70
0
  3
Dash dot (.5x) _._._._._._._._._._._._._._._.
 72
65
 73
4
 40
12.6999999999999993
 49
6.3499999999999996
 74
0
 49
-3.1749999999999998
 74
0
 49
0.0
 74
0
 49
-3.1749999999999998
 74
0
  0
LTYPE
  5
39
100
AcDbSymbolTableRecord
100
AcDbLinetypeTableRecord
  2
DASHDOTX2
 70
0
  3
Dash dot (2x) ____  .  ____  .  ____  .  ___
 72
65
 73
4
 40
50.7999999999999972
 49
25.3999999999999986
 74
0
 49
-12.6999999999999993
 74
0
 49
0.0
 74
0
 49
-12.6999999999999993
 74
0
  0
LTYPE
  5
3A
100
AcDbSymbolTableRecord
100
AcDbLinetypeTableRecord
  2
DIVIDE
 70
0
  3
Divide ____ . . ____ . . ____ . . ____ . . ____
 72
65
 73
6
 40
31.75
 49
12.6999999999999993
 74
0
 49
-6.3499999999999996
 74
0
 49
0.0
 74
0
 49
-6.3499999999999996
 74
0
 49
0.0
 74
0
 49
-6.3499999999999996
 74
0
  0
LTYPE
  5
3B
100
AcDbSymbolTableRecord
100
AcDbLinetypeTableRecord
  2
DIVIDE2
 70
0
  3
Divide (.5x) __..__..__..__..__..__..__..__.._
 72
65
 73
6
 40
15.875
 49
6.3499999999999996
 74
0
 49
-3.1749999999999998
 74
0
 49
0.0
 74
0
 49
-3.1749999999999998
 74
0
 49
0.0
 74
0
 49
-3.1749999999999998
 74
0
  0
LTYPE
  5
3C
100
AcDbSymbolTableRecord
100
AcDbLinetypeTableRecord
  2
DIVIDEX2
 70
0
  3
Divide (2x) ________  .  .  ________  .  .  _
 72
65
 73
6
 40
63.5
 49
25.3999999999999986
 74
0
 49
-12.6999999999999993
 74
0
 49
0.0
 74
0
 49
-12.6999999999999993
 74
0
 49
0.0
 74
0
 49
-12.6999999999999993
 74
0
  0
LTYPE
  5
3D
100
AcDbSymbolTableRecord
100
AcDbLinetypeTableRecord
  2
CENTER
 70
0
  3
Center ____ _ ____ _ ____ _ ____ _ ____ _ ____
 72
65
 73
4
 40
50.7999999999999972
 49
31.75
 74
0
 49
-6.3499999999999996
 74
0
 49
6.3499999999999996
 74
0
 49
-6.3499999999999996
 74
0
  0
LTYPE
  5
3E
100
AcDbSymbolTableRecord
100
AcDbLinetypeTableRecord
  2
CENTER2
 70
0
  3
Center (.5x) ___ _ ___ _ ___ _ ___ _ ___ _ ___
 72
65
 73
4
 40
28.5749999999999993
 49
19.0500000000000007
 74
0
 49
-3.1749999999999998
 74
0
 49
3.1749999999999998
 74
0
 49
-3.1749999999999998
 74
0
  0
LTYPE
  5
3F
100
AcDbSymbolTableRecord
100
AcDbLinetypeTableRecord
  2
CENTERX2
 70
0
  3
Center (2x) ________  __  ________  __  _____
 72
65
 73
4
 40
101.5999999999999943
 49
63.5
 74
0
 49
-12.6999999999999993
 74
0
 49
12.6999999999999993
 74
0
 49
-12.6999999999999993
 74
0
  0
LTYPE
  5
40
100
AcDbSymbolTableRecord
100
AcDbLinetypeTableRecord
  2
BORDER
 70
0
  3
Border __ __ . __ __ . __ __ . __ __ . __ __ .
 72
65
 73
6
 40
44.4500000000000028
 49
12.6999999999999993
 74
0
 49
-6.3499999999999996
 74
0
 49
12.6999999999999993
 74
0
 49
-6.3499999999999996
 74
0
 49
0.0
 74
0
 49
-6.3499999999999996
 74
0
  0
LTYPE
  5
41
100
AcDbSymbolTableRecord
100
AcDbLinetypeTableRecord
  2
BORDER2
 70
0
  3
Border (.5x) __.__.__.__.__.__.__.__.__.__.__.
 72
65
 73
6
 40
22.2250000000000014
 49
6.3499999999999996
 74
0
 49
-3.1749999999999998
 74
0
 49
6.3499999999999996
 74
0
 49
-3.1749999999999998
 74
0
 49
0.0
 74
0
 49
-3.1749999999999998
 74
0
  0
LTYPE
  5
42
100
AcDbSymbolTableRecord
100
AcDbLinetypeTableRecord
  2
BORDERX2
 70
0
  3
Border (2x) ____  ____  .  ____  ____  .  ___
 72
65
 73
6
 40
88.9000000000000057
 49
25.3999999999999986
 74
0
 49
-12.6999999999999993
 74
0
 49
25.3999999999999986
 74
0
 49
-12.6999999999999993
 74
0
 49
0.0
 74
0
 49
-12.6999999999999993
 74
0
  0
ENDTAB
  0
TABLE
  2
LAYER
  5
2
100
AcDbSymbolTable
 70
2
  0
LAYER
  5
10
100
AcDbSymbolTableRecord
100
AcDbLayerTableRecord
  2
0
 70
0
 62
7
  6
CONTINUOUS
290
1
390
F
  0
LAYER
  5
43
100
AcDbSymbolTableRecord
100
AcDbLayerTableRecord
  2
Calque_1
 70
0
 62
7
  6
CONTINUOUS
290
1
390
F
  0
ENDTAB
  0
TABLE
  2
STYLE
  5
3
100
AcDbSymbolTable
 70
1
  0
STYLE
  5
11
100
AcDbSymbolTableRecord
100
AcDbTextStyleTableRecord
  2
Standard
 70
0
 40
0.0
 41
0.75
 50
0.0
 71
0
 42
2.5
  3
txt
  4

  0
ENDTAB
  0
TABLE
  2
VIEW
  5
6
100
AcDbSymbolTable
 70
0
  0
ENDTAB
  0
TABLE
  2
UCS
  5
7
100
AcDbSymbolTable
 70
0
  0
ENDTAB
  0
TABLE
  2
APPID
  5
9
100
AcDbSymbolTable
 70
1
  0
APPID
  5
12
100
AcDbSymbolTableRecord
100
AcDbRegAppTableRecord
  2
ACAD
 70
0
  0
ENDTAB
  0
TABLE
  2
DIMSTYLE
  5
A
100
AcDbSymbolTable
 70
1
100
AcDbDimStyleTable
 71
0
  0
DIMSTYLE
105
27
100
AcDbSymbolTableRecord
100
AcDbDimStyleTableRecord
  2
Standard
 41
2.5
 42
0.625
 43
3.75
 44
1.25
 70
0
 73
0
 74
0
 77
1
 78
8
140
2.5
141
2.5
143
0.03937007874016
147
0.625
171
3
172
1
271
2
272
2
274
3
278
44
283
0
284
8
340
11
  0
ENDTAB
  0
TABLE
  2
BLOCK_RECORD
  5
1
100
AcDbSymbolTable
 70
1
  0
BLOCK_RECORD
  5
1F
100
AcDbSymbolTableRecord
100
AcDbBlockTableRecord
  2
*Model_Space
340
22
  0
BLOCK_RECORD
  5
1B
100
AcDbSymbolTableRecord
100
AcDbBlockTableRecord
  2
*Paper_Space
340
1E
  0
BLOCK_RECORD
  5
23
100
AcDbSymbolTableRecord
100
AcDbBlockTableRecord
  2
*Paper_Space0
340
26
  0
ENDTAB
  0
ENDSEC
  0
SECTION
  2
BLOCKS
  0
BLOCK
  5
20
100
AcDbEntity
  8
0
100
AcDbBlockBegin
  2
*Model_Space
 70
0
 10
0.0
 20
0.0
 30
0.0
  3
*Model_Space
  1

  0
ENDBLK
  5
21
100
AcDbEntity
  8
0
100
AcDbBlockEnd
  0
BLOCK
  5
1C
100
AcDbEntity
 67
1
  8
0
100
AcDbBlockBegin
  2
*Paper_Space
 70
0
 10
0.0
 20
0.0
 30
0.0
  3
*Paper_Space
  1

  0
ENDBLK
  5
1D
100
AcDbEntity
 67
1
  8
0
100
AcDbBlockEnd
  0
BLOCK
  5
24
100
AcDbEntity
  8
0
100
AcDbBlockBegin
  2
*Paper_Space0
 70
0
 10
0.0
 20
0.0
 30
0.0
  3
*Paper_Space0
  1

  0
ENDBLK
  5
25
100
AcDbEntity
  8
0
100
AcDbBlockEnd
  0
ENDSEC
  0
SECTION
  2
ENTITIES
  0
LWPOLYLINE
  5
44
  8
Calque_1
 62
7
370
-1
  6
ByLayer
100
AcDbEntity
100
AcDbPolyline
 90
2
 70
0
 10
-441.8849010000000135
 20
-33.5700780000000023
 10
-421.8859279999999785
 20
-33.5700780000000023
  0
LWPOLYLINE
  5
45
  8
Calque_1
 62
7
370
-1
  6
ByLayer
100
AcDbEntity
100
AcDbPolyline
 90
2
 70
0
 10
-421.8859279999999785
 20
-30.5714669999999984
 10
-421.8859279999999785
 20
-33.5700780000000023
  0
LWPOLYLINE
  5
46
  8
Calque_1
 62
7
370
-1
  6
ByLayer
100
AcDbEntity
100
AcDbPolyline
 90
4
 70
0
 10
-421.8859279999999785
 20
-30.5714669999999984
 10
-401.8869559999999979
 20
-30.5714669999999984
 10
-401.8869559999999979
 20
-33.5700780000000023
 10
-381.8844560000000001
 20
-33.5700780000000023
  0
LWPOLYLINE
  5
47
  8
Calque_1
 62
7
370
-1
  6
ByLayer
100
AcDbEntity
100
AcDbPolyline
 90
2
 70
0
 10
-381.8844560000000001
 20
-30.5714669999999984
 10
-381.8844560000000001
 20
-33.5700780000000023
  0
LWPOLYLINE
  5
48
  8
Calque_1
 62
7
370
-1
  6
ByLayer
100
AcDbEntity
100
AcDbPolyline
 90
4
 70
0
 10
-381.8844560000000001
 20
-30.5714669999999984
 10
-361.8854840000000195
 20
-30.5714669999999984
 10
-361.8854840000000195
 20
-33.5700780000000023
 10
-344.8851230000000214
 20
-33.5700780000000023
  0
LWPOLYLINE
  5
49
  8
Calque_1
 62
7
370
-1
  6
ByLayer
100
AcDbEntity
100
AcDbPolyline
 90
4
 70
0
 10
-441.8849010000000135
 20
66.4283109999999937
 10
-421.8859279999999785
 20
66.4283109999999937
 10
-421.8859279999999785
 20
63.4296999999999969
 10
-401.8869559999999979
 20
63.4296999999999969
  0
LWPOLYLINE
  5
4A
  8
Calque_1
 62
7
370
-1
  6
ByLayer
100
AcDbEntity
100
AcDbPolyline
 90
2
 70
0
 10
-401.8869559999999979
 20
66.4283109999999937
 10
-401.8869559999999979
 20
63.4296999999999969
  0
LWPOLYLINE
  5
4B
  8
Calque_1
 62
7
370
-1
  6
ByLayer
100
AcDbEntity
100
AcDbPolyline
 90
4
 70
0
 10
-401.8869559999999979
 20
66.4283109999999937
 10
-381.8844560000000001
 20
66.4283109999999937
 10
-381.8844560000000001
 20
63.4296999999999969
 10
-361.8854840000000195
 20
63.4296999999999969
  0
LWPOLYLINE
  5
4C
  8
Calque_1
 62
7
370
-1
  6
ByLayer
100
AcDbEntity
100
AcDbPolyline
 90
2
 70
0
 10
-361.8854840000000195
 20
66.4283109999999937
 10
-361.8854840000000195
 20
63.4296999999999969
  0
LWPOLYLINE
  5
4D
  8
Calque_1
 62
7
370
-1
  6
ByLayer
100
AcDbEntity
100
AcDbPolyline
 90
2
 70
0
 10
-361.8854840000000195
 20
66.4283109999999937
 10
-344.8851230000000214
 20
66.4283109999999937
  0
LWPOLYLINE
  5
4E
  8
Calque_1
 62
7
370
-1
  6
ByLayer
100
AcDbEntity
100
AcDbPolyline
 90
2
 70
0
 10
-441.8849010000000135
 20
-33.5700780000000023
 10
-441.8849010000000135
 20
-13.5711060000000003
  0
LWPOLYLINE
  5
4F
  8
Calque_1
 62
7
370
-1
  6
ByLayer
100
AcDbEntity
100
AcDbPolyline
 90
2
 70
0
 10
-438.886289999999974
 20
-13.5711060000000003
 10
-441.8849010000000135
 20
-13.5711060000000003
  0
LWPOLYLINE
  5
50
  8
Calque_1
 62
7
370
-1
  6
ByLayer
100
AcDbEntity
100
AcDbPolyline
 90
4
 70
0
 10
-438.886289999999974
 20
-13.5711060000000003
 10
-438.886289999999974
 20
6.4278659999999999
 10
-441.8849010000000135
 20
6.4278659999999999
 10
-441.8849010000000135
 20
26.4303659999999994
  0
LWPOLYLINE
  5
51
  8
Calque_1
 62
7
370
-1
  6
ByLayer
100
AcDbEntity
100
AcDbPolyline
 90
2
 70
0
 10
-438.886289999999974
 20
26.4303659999999994
 10
-441.8849010000000135
 20
26.4303659999999994
  0
LWPOLYLINE
  5
52
  8
Calque_1
 62
7
370
-1
  6
ByLayer
100
AcDbEntity
100
AcDbPolyline
 90
4
 70
0
 10
-438.886289999999974
 20
26.4303659999999994
 10
-438.886289999999974
 20
46.4293389999999988
 10
-441.8849010000000135
 20
46.4293389999999988
 10
-441.8849010000000135
 20
66.4283109999999937
  0
LWPOLYLINE
  5
53
  8
Calque_1
 62
7
370
-1
  6
ByLayer
100
AcDbEntity
100
AcDbPolyline
 90
2
 70
0
 10
-344.8851230000000214
 20
-33.5700780000000023
 10
-344.8851230000000214
 20
-13.5711060000000003
  0
LWPOLYLINE
  5
54
  8
Calque_1
 62
7
370
-1
  6
ByLayer
100
AcDbEntity
100
AcDbPolyline
 90
2
 70
0
 10
-341.886511999999982
 20
-13.5711060000000003
 10
-344.8851230000000214
 20
-13.5711060000000003
  0
LWPOLYLINE
  5
55
  8
Calque_1
 62
7
370
-1
  6
ByLayer
100
AcDbEntity
100
AcDbPolyline
 90
4
 70
0
 10
-341.886511999999982
 20
-13.5711060000000003
 10
-341.886511999999982
 20
6.4278659999999999
 10
-344.8851230000000214
 20
6.4278659999999999
 10
-344.8851230000000214
 20
26.4303659999999994
  0
LWPOLYLINE
  5
56
  8
Calque_1
 62
7
370
-1
  6
ByLayer
100
AcDbEntity
100
AcDbPolyline
 90
2
 70
0
 10
-341.886511999999982
 20
26.4303659999999994
 10
-344.8851230000000214
 20
26.4303659999999994
  0
LWPOLYLINE
  5
57
  8
Calque_1
 62
7
370
-1
  6
ByLayer
100
AcDbEntity
100
AcDbPolyline
 90
4
 70
0
 10
-341.886511999999982
 20
26.4303659999999994
 10
-341.886511999999982
 20
46.4293389999999988
 10
-344.8851230000000214
 20
46.4293389999999988
 10
-344.8851230000000214
 20
66.4283109999999937
  0
LWPOLYLINE
  5
58
  8
Calque_1
 62
7
370
-1
  6
ByLayer
100
AcDbEntity
100
AcDbPolyline
 90
2
 70
0
 10
-551.8845400000000154
 20
76.4295610000000067
 10
-531.8855670000000373
 20
76.4295610000000067
  0
LWPOLYLINE
  5
59
  8
Calque_1
 62
7
370
-1
  6
ByLayer
100
AcDbEntity
100
AcDbPolyline
 90
2
 70
0
 10
-531.8855670000000373
 20
79.4281720000000035
 10
-531.8855670000000373
 20
76.4295610000000067
  0
LWPOLYLINE
  5
5A
  8
Calque_1
 62
7
370
-1
  6
ByLayer
100
AcDbEntity
100
AcDbPolyline
 90
4
 70
0
 10
-531.8855670000000373
 20
79.4281720000000035
 10
-511.8865949999999998
 20
79.4281720000000035
 10
-511.8865949999999998
 20
76.4295610000000067
 10
-491.8840950000000021
 20
76.4295610000000067
  0
LWPOLYLINE
  5
5B
  8
Calque_1
 62
7
370
-1
  6
ByLayer
100
AcDbEntity
100
AcDbPolyline
 90
2
 70
0
 10
-491.8840950000000021
 20
79.4281720000000035
 10
-491.8840950000000021
 20
76.4295610000000067
  0
LWPOLYLINE
  5
5C
  8
Calque_1
 62
7
370
-1
  6
ByLayer
100
AcDbEntity
100
AcDbPolyline
 90
4
 70
0
 10
-491.8840950000000021
 20
79.4281720000000035
 10
-471.8851230000000214
 20
79.4281720000000035
 10
-471.8851230000000214
 20
76.4295610000000067
 10
-454.8847620000000234
 20
76.4295610000000067
  0
LWPOLYLINE
  5
5D
  8
Calque_1
 62
7
370
-1
  6
ByLayer
100
AcDbEntity
100
AcDbPolyline
 90
4
 70
0
 10
-551.8845400000000154
 20
176.4279500000000098
 10
-531.8855670000000373
 20
176.4279500000000098
 10
-531.8855670000000373
 20
173.4293389999999988
 10
-511.8865949999999998
 20
173.4293389999999988
  0
LWPOLYLINE
  5
5E
  8
Calque_1
 62
7
370
-1
  6
ByLayer
100
AcDbEntity
100
AcDbPolyline
 90
2
 70
0
 10
-511.8865949999999998
 20
176.4279500000000098
 10
-511.8865949999999998
 20
173.4293389999999988
  0
LWPOLYLINE
  5
5F
  8
Calque_1
 62
7
370
-1
  6
ByLayer
100
AcDbEntity
100
AcDbPolyline
 90
4
 70
0
 10
-511.8865949999999998
 20
176.4279500000000098
 10
-491.8840950000000021
 20
176.4279500000000098
 10
-491.8840950000000021
 20
173.4293389999999988
 10
-471.8851230000000214
 20
173.4293389999999988
  0
LWPOLYLINE
  5
60
  8
Calque_1
 62
7
370
-1
  6
ByLayer
100
AcDbEntity
100
AcDbPolyline
 90
2
 70
0
 10
-471.8851230000000214
 20
176.4279500000000098
 10
-471.8851230000000214
 20
173.4293389999999988
  0
LWPOLYLINE
  5
61
  8
Calque_1
 62
7
370
-1
  6
ByLayer
100
AcDbEntity
100
AcDbPolyline
 90
2
 70
0
 10
-471.8851230000000214
 20
176.4279500000000098
 10
-454.8847620000000234
 20
176.4279500000000098
  0
LWPOLYLINE
  5
62
  8
Calque_1
 62
7
370
-1
  6
ByLayer
100
AcDbEntity
100
AcDbPolyline
 90
2
 70
0
 10
-551.8845400000000154
 20
76.4295610000000067
 10
-551.8845400000000154
 20
96.4285330000000016
  0
LWPOLYLINE
  5
63
  8
Calque_1
 62
7
370
-1
  6
ByLayer
100
AcDbEntity
100
AcDbPolyline
 90
2
 70
0
 10
-548.8859280000000354
 20
96.4285330000000016
 10
-551.8845400000000154
 20
96.4285330000000016
  0
LWPOLYLINE
  5
64
  8
Calque_1
 62
7
370
-1
  6
ByLayer
100
AcDbEntity
100
AcDbPolyline
 90
4
 70
0
 10
-548.8859280000000354
 20
96.4285330000000016
 10
-548.8859280000000354
 20
116.4275049999999965
 10
-551.8845400000000154
 20
116.4275049999999965
 10
-551.8845400000000154
 20
136.4300049999999942
  0
LWPOLYLINE
  5
65
  8
Calque_1
 62
7
370
-1
  6
ByLayer
100
AcDbEntity
100
AcDbPolyline
 90
2
 70
0
 10
-548.8859280000000354
 20
136.4300049999999942
 10
-551.8845400000000154
 20
136.4300049999999942
  0
LWPOLYLINE
  5
66
  8
Calque_1
 62
7
370
-1
  6
ByLayer
100
AcDbEntity
100
AcDbPolyline
 90
4
 70
0
 10
-548.8859280000000354
 20
136.4300049999999942
 10
-548.8859280000000354
 20
156.4289780000000007
 10
-551.8845400000000154
 20
156.4289780000000007
 10
-551.8845400000000154
 20
176.4279500000000098
  0
LWPOLYLINE
  5
67
  8
Calque_1
 62
7
370
-1
  6
ByLayer
100
AcDbEntity
100
AcDbPolyline
 90
2
 70
0
 10
-454.8847620000000234
 20
76.4295610000000067
 10
-454.8847620000000234
 20
96.4285330000000016
  0
LWPOLYLINE
  5
68
  8
Calque_1
 62
7
370
-1
  6
ByLayer
100
AcDbEntity
100
AcDbPolyline
 90
2
 70
0
 10
-451.8861509999999839
 20
96.4285330000000016
 10
-454.8847620000000234
 20
96.4285330000000016
  0
LWPOLYLINE
  5
69
  8
Calque_1
 62
7
370
-1
  6
ByLayer
100
AcDbEntity
100
AcDbPolyline
 90
4
 70
0
 10
-451.8861509999999839
 20
96.4285330000000016
 10
-451.8861509999999839
 20
116.4275049999999965
 10
-454.8847620000000234
 20
116.4275049999999965
 10
-454.8847620000000234
 20
136.4300049999999942
  0
LWPOLYLINE
  5
6A
  8
Calque_1
 62
7
370
-1
  6
ByLayer
100
AcDbEntity
100
AcDbPolyline
 90
2
 70
0
 10
-451.8861509999999839
 20
136.4300049999999942
 10
-454.8847620000000234
 20
136.4300049999999942
  0
LWPOLYLINE
  5
6B
  8
Calque_1
 62
7
370
-1
  6
ByLayer
100
AcDbEntity
100
AcDbPolyline
 90
4
 70
0
 10
-451.8861509999999839
 20
136.4300049999999942
 10
-451.8861509999999839
 20
156.4289780000000007
 10
-454.8847620000000234
 20
156.4289780000000007
 10
-454.8847620000000234
 20
176.4279500000000098
  0
LWPOLYLINE
  5
6C
  8
Calque_1
 62
7
370
-1
  6
ByLayer
100
AcDbEntity
100
AcDbPolyline
 90
4
 70
0
 10
-438.886289999999974
 20
79.4281720000000035
 10
-421.8859279999999785
 20
79.4281720000000035
 10
-421.8859279999999785
 20
76.4295610000000067
 10
-401.8869559999999979
 20
76.4295610000000067
  0
LWPOLYLINE
  5
6D
  8
Calque_1
 62
7
370
-1
  6
ByLayer
100
AcDbEntity
100
AcDbPolyline
 90
2
 70
0
 10
-401.8869559999999979
 20
79.4281720000000035
 10
-401.8869559999999979
 20
76.4295610000000067
  0
LWPOLYLINE
  5
6E
  8
Calque_1
 62
7
370
-1
  6
ByLayer
100
AcDbEntity
100
AcDbPolyline
 90
4
 70
0
 10
-401.8869559999999979
 20
79.4281720000000035
 10
-381.8844560000000001
 20
79.4281720000000035
 10
-381.8844560000000001
 20
76.4295610000000067
 10
-361.8854840000000195
 20
76.4295610000000067
  0
LWPOLYLINE
  5
6F
  8
Calque_1
 62
7
370
-1
  6
ByLayer
100
AcDbEntity
100
AcDbPolyline
 90
2
 70
0
 10
-361.8854840000000195
 20
79.4281720000000035
 10
-361.8854840000000195
 20
76.4295610000000067
  0
LWPOLYLINE
  5
70
  8
Calque_1
 62
7
370
-1
  6
ByLayer
100
AcDbEntity
100
AcDbPolyline
 90
2
 70
0
 10
-361.8854840000000195
 20
79.4281720000000035
 10
-344.8851230000000214
 20
79.4281720000000035
  0
LWPOLYLINE
  5
71
  8
Calque_1
 62
7
370
-1
  6
ByLayer
100
AcDbEntity
100
AcDbPolyline
 90
2
 70
0
 10
-438.886289999999974
 20
173.4293389999999988
 10
-421.8859279999999785
 20
173.4293389999999988
  0
LWPOLYLINE
  5
72
  8
Calque_1
 62
7
370
-1
  6
ByLayer
100
AcDbEntity
100
AcDbPolyline
 90
2
 70
0
 10
-421.8859279999999785
 20
176.4279500000000098
 10
-421.8859279999999785
 20
173.4293389999999988
  0
LWPOLYLINE
  5
73
  8
Calque_1
 62
7
370
-1
  6
ByLayer
100
AcDbEntity
100
AcDbPolyline
 90
4
 70
0
 10
-421.8859279999999785
 20
176.4279500000000098
 10
-401.8869559999999979
 20
176.4279500000000098
 10
-401.8869559999999979
 20
173.4293389999999988
 10
-381.8844560000000001
 20
173.4293389999999988
  0
LWPOLYLINE
  5
74
  8
Calque_1
 62
7
370
-1
  6
ByLayer
100
AcDbEntity
100
AcDbPolyline
 90
2
 70
0
 10
-381.8844560000000001
 20
176.4279500000000098
 10
-381.8844560000000001
 20
173.4293389999999988
  0
LWPOLYLINE
  5
75
  8
Calque_1
 62
7
370
-1
  6
ByLayer
100
AcDbEntity
100
AcDbPolyline
 90
4
 70
0
 10
-381.8844560000000001
 20
176.4279500000000098
 10
-361.8854840000000195
 20
176.4279500000000098
 10
-361.8854840000000195
 20
173.4293389999999988
 10
-344.8851230000000214
 20
173.4293389999999988
  0
LWPOLYLINE
  5
76
  8
Calque_1
 62
7
370
-1
  6
ByLayer
100
AcDbEntity
100
AcDbPolyline
 90
4
 70
0
 10
-438.886289999999974
 20
79.4281720000000035
 10
-438.886289999999974
 20
96.4285330000000016
 10
-441.8849010000000135
 20
96.4285330000000016
 10
-441.8849010000000135
 20
116.4275049999999965
  0
LWPOLYLINE
  5
77
  8
Calque_1
 62
7
370
-1
  6
ByLayer
100
AcDbEntity
100
AcDbPolyline
 90
2
 70
0
 10
-438.886289999999974
 20
116.4275049999999965
 10
-441.8849010000000135
 20
116.4275049999999965
  0
LWPOLYLINE
  5
78
  8
Calque_1
 62
7
370
-1
  6
ByLayer
100
AcDbEntity
100
AcDbPolyline
 90
4
 70
0
 10
-438.886289999999974
 20
116.4275049999999965
 10
-438.886289999999974
 20
136.4300049999999942
 10
-441.8849010000000135
 20
136.4300049999999942
 10
-441.8849010000000135
 20
156.4289780000000007
  0
LWPOLYLINE
  5
79
  8
Calque_1
 62
7
370
-1
  6
ByLayer
100
AcDbEntity
100
AcDbPolyline
 90
2
 70
0
 10
-438.886289999999974
 20
156.4289780000000007
 10
-441.8849010000000135
 20
156.4289780000000007
  0
LWPOLYLINE
  5
7A
  8
Calque_1
 62
7
370
-1
  6
ByLayer
100
AcDbEntity
100
AcDbPolyline
 90
2
 70
0
 10
-438.886289999999974
 20
156.4289780000000007
 10
-438.886289999999974
 20
173.4293389999999988
  0
LWPOLYLINE
  5
7B
  8
Calque_1
 62
7
370
-1
  6
ByLayer
100
AcDbEntity
100
AcDbPolyline
 90
2
 70
0
 10
-344.8851230000000214
 20
79.4281720000000035
 10
-344.8851230000000214
 20
96.4285330000000016
  0
LWPOLYLINE
  5
7C
  8
Calque_1
 62
7
370
-1
  6
ByLayer
100
AcDbEntity
100
AcDbPolyline
 90
2
 70
0
 10
-341.886511999999982
 20
96.4285330000000016
 10
-344.8851230000000214
 20
96.4285330000000016
  0
LWPOLYLINE
  5
7D
  8
Calque_1
 62
7
370
-1
  6
ByLayer
100
AcDbEntity
100
AcDbPolyline
 90
4
 70
0
 10
-341.886511999999982
 20
96.4285330000000016
 10
-341.886511999999982
 20
116.4275049999999965
 10
-344.8851230000000214
 20
116.4275049999999965
 10
-344.8851230000000214
 20
136.4300049999999942
  0
LWPOLYLINE
  5
7E
  8
Calque_1
 62
7
370
-1
  6
ByLayer
100
AcDbEntity
100
AcDbPolyline
 90
2
 70
0
 10
-341.886511999999982
 20
136.4300049999999942
 10
-344.8851230000000214
 20
136.4300049999999942
  0
LWPOLYLINE
  5
7F
  8
Calque_1
 62
7
370
-1
  6
ByLayer
100
AcDbEntity
100
AcDbPolyline
 90
4
 70
0
 10
-341.886511999999982
 20
136.4300049999999942
 10
-341.886511999999982
 20
156.4289780000000007
 10
-344.8851230000000214
 20
156.4289780000000007
 10
-344.8851230000000214
 20
173.4293389999999988
  0
LWPOLYLINE
  5
80
  8
Calque_1
 62
7
370
-1
  6
ByLayer
100
AcDbEntity
100
AcDbPolyline
 90
2
 70
0
 10
-331.8852620000000115
 20
76.4295610000000067
 10
-311.886289999999974
 20
76.4295610000000067
  0
LWPOLYLINE
  5
81
  8
Calque_1
 62
7
370
-1
  6
ByLayer
100
AcDbEntity
100
AcDbPolyline
 90
2
 70
0
 10
-311.886289999999974
 20
79.4281720000000035
 10
-311.886289999999974
 20
76.4295610000000067
  0
LWPOLYLINE
  5
82
  8
Calque_1
 62
7
370
-1
  6
ByLayer
100
AcDbEntity
100
AcDbPolyline
 90
4
 70
0
 10
-311.886289999999974
 20
79.4281720000000035
 10
-291.8873169999999959
 20
79.4281720000000035
 10
-291.8873169999999959
 20
76.4295610000000067
 10
-271.8848169999999982
 20
76.4295610000000067
  0
LWPOLYLINE
  5
83
  8
Calque_1
 62
7
370
-1
  6
ByLayer
100
AcDbEntity
100
AcDbPolyline
 90
2
 70
0
 10
-271.8848169999999982
 20
79.4281720000000035
 10
-271.8848169999999982
 20
76.4295610000000067
  0
LWPOLYLINE
  5
84
  8
Calque_1
 62
7
370
-1
  6
ByLayer
100
AcDbEntity
100
AcDbPolyline
 90
4
 70
0
 10
-271.8848169999999982
 20
79.4281720000000035
 10
-251.8858449999999891
 20
79.4281720000000035
 10
-251.8858449999999891
 20
76.4295610000000067
 10
-234.8854839999999911
 20
76.4295610000000067
  0
LWPOLYLINE
  5
85
  8
Calque_1
 62
7
370
-1
  6
ByLayer
100
AcDbEntity
100
AcDbPolyline
 90
4
 70
0
 10
-331.8852620000000115
 20
176.4279500000000098
 10
-311.886289999999974
 20
176.4279500000000098
 10
-311.886289999999974
 20
173.4293389999999988
 10
-291.8873169999999959
 20
173.4293389999999988
  0
LWPOLYLINE
  5
86
  8
Calque_1
 62
7
370
-1
  6
ByLayer
100
AcDbEntity
100
AcDbPolyline
 90
2
 70
0
 10
-291.8873169999999959
 20
176.4279500000000098
 10
-291.8873169999999959
 20
173.4293389999999988
  0
LWPOLYLINE
  5
87
  8
Calque_1
 62
7
370
-1
  6
ByLayer
100
AcDbEntity
100
AcDbPolyline
 90
4
 70
0
 10
-291.8873169999999959
 20
176.4279500000000098
 10
-271.8848169999999982
 20
176.4279500000000098
 10
-271.8848169999999982
 20
173.4293389999999988
 10
-251.8858449999999891
 20
173.4293389999999988
  0
LWPOLYLINE
  5
88
  8
Calque_1
 62
7
370
-1
  6
ByLayer
100
AcDbEntity
100
AcDbPolyline
 90
2
 70
0
 10
-251.8858449999999891
 20
176.4279500000000098
 10
-251.8858449999999891
 20
173.4293389999999988
  0
LWPOLYLINE
  5
89
  8
Calque_1
 62
7
370
-1
  6
ByLayer
100
AcDbEntity
100
AcDbPolyline
 90
2
 70
0
 10
-251.8858449999999891
 20
176.4279500000000098
 10
-234.8854839999999911
 20
176.4279500000000098
  0
LWPOLYLINE
  5
8A
  8
Calque_1
 62
7
370
-1
  6
ByLayer
100
AcDbEntity
100
AcDbPolyline
 90
2
 70
0
 10
-331.8852620000000115
 20
76.4295610000000067
 10
-331.8852620000000115
 20
96.4285330000000016
  0
LWPOLYLINE
  5
8B
  8
Calque_1
 62
7
370
-1
  6
ByLayer
100
AcDbEntity
100
AcDbPolyline
 90
2
 70
0
 10
-328.8866509999999721
 20
96.4285330000000016
 10
-331.8852620000000115
 20
96.4285330000000016
  0
LWPOLYLINE
  5
8C
  8
Calque_1
 62
7
370
-1
  6
ByLayer
100
AcDbEntity
100
AcDbPolyline
 90
4
 70
0
 10
-328.8866509999999721
 20
96.4285330000000016
 10
-328.8866509999999721
 20
116.4275049999999965
 10
-331.8852620000000115
 20
116.4275049999999965
 10
-331.8852620000000115
 20
136.4300049999999942
  0
LWPOLYLINE
  5
8D
  8
Calque_1
 62
7
370
-1
  6
ByLayer
100
AcDbEntity
100
AcDbPolyline
 90
2
 70
0
 10
-328.8866509999999721
 20
136.4300049999999942
 10
-331.8852620000000115
 20
136.4300049999999942
  0
LWPOLYLINE
  5
8E
  8
Calque_1
 62
7
370
-1
  6
ByLayer
100
AcDbEntity
100
AcDbPolyline
 90
4
 70
0
 10
-328.8866509999999721
 20
136.4300049999999942
 10
-328.8866509999999721
 20
156.4289780000000007
 10
-331.8852620000000115
 20
156.4289780000000007
 10
-331.8852620000000115
 20
176.4279500000000098
  0
LWPOLYLINE
  5
8F
  8
Calque_1
 62
7
370
-1
  6
ByLayer
100
AcDbEntity
100
AcDbPolyline
 90
2
 70
0
 10
-234.8854839999999911
 20
76.4295610000000067
 10
-234.8854839999999911
 20
96.4285330000000016
  0
LWPOLYLINE
  5
90
  8
Calque_1
 62
7
370
-1
  6
ByLayer
100
AcDbEntity
100
AcDbPolyline
 90
2
 70
0
 10
-231.8868730000000085
 20
96.4285330000000016
 10
-234.8854839999999911
 20
96.4285330000000016
  0
LWPOLYLINE
  5
91
  8
Calque_1
 62
7
370
-1
  6
ByLayer
100
AcDbEntity
100
AcDbPolyline
 90
4
 70
0
 10
-231.8868730000000085
 20
96.4285330000000016
 10
-231.8868730000000085
 20
116.4275049999999965
 10
-234.8854839999999911
 20
116.4275049999999965
 10
-234.8854839999999911
 20
136.4300049999999942
  0
LWPOLYLINE
  5
92
  8
Calque_1
 62
7
370
-1
  6
ByLayer
100
AcDbEntity
100
AcDbPolyline
 90
2
 70
0
 10
-231.8868730000000085
 20
136.4300049999999942
 10
-234.8854839999999911
 20
136.4300049999999942
  0
LWPOLYLINE
  5
93
  8
Calque_1
 62
7
370
-1
  6
ByLayer
100
AcDbEntity
100
AcDbPolyline
 90
4
 70
0
 10
-231.8868730000000085
 20
136.4300049999999942
 10
-231.8868730000000085
 20
156.4289780000000007
 10
-234.8854839999999911
 20
156.4289780000000007
 10
-234.8854839999999911
 20
176.4279500000000098
  0
LWPOLYLINE
  5
94
  8
Calque_1
 62
7
370
-1
  6
ByLayer
100
AcDbEntity
100
AcDbPolyline
 90
2
 70
0
 10
-441.8849010000000135
 20
186.4292000000000087
 10
-421.8859279999999785
 20
186.4292000000000087
  0
LWPOLYLINE
  5
95
  8
Calque_1
 62
7
370
-1
  6
ByLayer
100
AcDbEntity
100
AcDbPolyline
 90
2
 70
0
 10
-421.8859279999999785
 20
189.4278109999999913
 10
-421.8859279999999785
 20
186.4292000000000087
  0
LWPOLYLINE
  5
96
  8
Calque_1
 62
7
370
-1
  6
ByLayer
100
AcDbEntity
100
AcDbPolyline
 90
4
 70
0
 10
-421.8859279999999785
 20
189.4278109999999913
 10
-401.8869559999999979
 20
189.4278109999999913
 10
-401.8869559999999979
 20
186.4292000000000087
 10
-381.8844560000000001
 20
186.4292000000000087
  0
LWPOLYLINE
  5
97
  8
Calque_1
 62
7
370
-1
  6
ByLayer
100
AcDbEntity
100
AcDbPolyline
 90
2
 70
0
 10
-381.8844560000000001
 20
189.4278109999999913
 10
-381.8844560000000001
 20
186.4292000000000087
  0
LWPOLYLINE
  5
98
  8
Calque_1
 62
7
370
-1
  6
ByLayer
100
AcDbEntity
100
AcDbPolyline
 90
4
 70
0
 10
-381.8844560000000001
 20
189.4278109999999913
 10
-361.8854840000000195
 20
189.4278109999999913
 10
-361.8854840000000195
 20
186.4292000000000087
 10
-344.8851230000000214
 20
186.4292000000000087
  0
LWPOLYLINE
  5
99
  8
Calque_1
 62
7
370
-1
  6
ByLayer
100
AcDbEntity
100
AcDbPolyline
 90
4
 70
0
 10
-441.8849010000000135
 20
286.4275890000000118
 10
-421.8859279999999785
 20
286.4275890000000118
 10
-421.8859279999999785
 20
283.4289779999999723
 10
-401.8869559999999979
 20
283.4289779999999723
  0
LWPOLYLINE
  5
9A
  8
Calque_1
 62
7
370
-1
  6
ByLayer
100
AcDbEntity
100
AcDbPolyline
 90
2
 70
0
 10
-401.8869559999999979
 20
286.4275890000000118
 10
-401.8869559999999979
 20
283.4289779999999723
  0
LWPOLYLINE
  5
9B
  8
Calque_1
 62
7
370
-1
  6
ByLayer
100
AcDbEntity
100
AcDbPolyline
 90
4
 70
0
 10
-401.8869559999999979
 20
286.4275890000000118
 10
-381.8844560000000001
 20
286.4275890000000118
 10
-381.8844560000000001
 20
283.4289779999999723
 10
-361.8854840000000195
 20
283.4289779999999723
  0
LWPOLYLINE
  5
9C
  8
Calque_1
 62
7
370
-1
  6
ByLayer
100
AcDbEntity
100
AcDbPolyline
 90
2
 70
0
 10
-361.8854840000000195
 20
286.4275890000000118
 10
-361.8854840000000195
 20
283.4289779999999723
  0
LWPOLYLINE
  5
9D
  8
Calque_1
 62
7
370
-1
  6
ByLayer
100
AcDbEntity
100
AcDbPolyline
 90
2
 70
0
 10
-361.8854840000000195
 20
286.4275890000000118
 10
-344.8851230000000214
 20
286.4275890000000118
  0
LWPOLYLINE
  5
9E
  8
Calque_1
 62
7
370
-1
  6
ByLayer
100
AcDbEntity
100
AcDbPolyline
 90
2
 70
0
 10
-441.8849010000000135
 20
186.4292000000000087
 10
-441.8849010000000135
 20
206.4281719999999893
  0
LWPOLYLINE
  5
9F
  8
Calque_1
 62
7
370
-1
  6
ByLayer
100
AcDbEntity
100
AcDbPolyline
 90
2
 70
0
 10
-438.886289999999974
 20
206.4281719999999893
 10
-441.8849010000000135
 20
206.4281719999999893
  0
LWPOLYLINE
  5
A0
  8
Calque_1
 62
7
370
-1
  6
ByLayer
100
AcDbEntity
100
AcDbPolyline
 90
4
 70
0
 10
-438.886289999999974
 20
206.4281719999999893
 10
-438.886289999999974
 20
226.4271439999999984
 10
-441.8849010000000135
 20
226.4271439999999984
 10
-441.8849010000000135
 20
246.4296439999999961
  0
LWPOLYLINE
  5
A1
  8
Calque_1
 62
7
370
-1
  6
ByLayer
100
AcDbEntity
100
AcDbPolyline
 90
2
 70
0
 10
-438.886289999999974
 20
246.4296439999999961
 10
-441.8849010000000135
 20
246.4296439999999961
  0
LWPOLYLINE
  5
A2
  8
Calque_1
 62
7
370
-1
  6
ByLayer
100
AcDbEntity
100
AcDbPolyline
 90
4
 70
0
 10
-438.886289999999974
 20
246.4296439999999961
 10
-438.886289999999974
 20
266.4286159999999768
 10
-441.8849010000000135
 20
266.4286159999999768
 10
-441.8849010000000135
 20
286.4275890000000118
  0
LWPOLYLINE
  5
A3
  8
Calque_1
 62
7
370
-1
  6
ByLayer
100
AcDbEntity
100
AcDbPolyline
 90
2
 70
0
 10
-344.8851230000000214
 20
186.4292000000000087
 10
-344.8851230000000214
 20
206.4281719999999893
  0
LWPOLYLINE
  5
A4
  8
Calque_1
 62
7
370
-1
  6
ByLayer
100
AcDbEntity
100
AcDbPolyline
 90
2
 70
0
 10
-341.886511999999982
 20
206.4281719999999893
 10
-344.8851230000000214
 20
206.4281719999999893
  0
LWPOLYLINE
  5
A5
  8
Calque_1
 62
7
370
-1
  6
ByLayer
100
AcDbEntity
100
AcDbPolyline
 90
4
 70
0
 10
-341.886511999999982
 20
206.4281719999999893
 10
-341.886511999999982
 20
226.4271439999999984
 10
-344.8851230000000214
 20
226.4271439999999984
 10
-344.8851230000000214
 20
246.4296439999999961
  0
LWPOLYLINE
  5
A6
  8
Calque_1
 62
7
370
-1
  6
ByLayer
100
AcDbEntity
100
AcDbPolyline
 90
2
 70
0
 10
-341.886511999999982
 20
246.4296439999999961
 10
-344.8851230000000214
 20
246.4296439999999961
  0
LWPOLYLINE
  5
A7
  8
Calque_1
 62
7
370
-1
  6
ByLayer
100
AcDbEntity
100
AcDbPolyline
 90
4
 70
0
 10
-341.886511999999982
 20
246.4296439999999961
 10
-341.886511999999982
 20
266.4286159999999768
 10
-344.8851230000000214
 20
266.4286159999999768
 10
-344.8851230000000214
 20
286.4275890000000118
  0
LWPOLYLINE
  5
A8
  8
Calque_1
 62
7
370
-1
  6
ByLayer
100
AcDbEntity
100
AcDbPolyline
 90
4
 70
0
 10
-438.886289999999974
 20
299.4274500000000216
 10
-421.8859279999999785
 20
299.4274500000000216
 10
-421.8859279999999785
 20
296.4288389999999822
 10
-401.8869559999999979
 20
296.4288389999999822
  0
LWPOLYLINE
  5
A9
  8
Calque_1
 62
7
370
-1
  6
ByLayer
100
AcDbEntity
100
AcDbPolyline
 90
2
 70
0
 10
-401.8869559999999979
 20
299.4274500000000216
 10
-401.8869559999999979
 20
296.4288389999999822
  0
LWPOLYLINE
  5
AA
  8
Calque_1
 62
7
370
-1
  6
ByLayer
100
AcDbEntity
100
AcDbPolyline
 90
4
 70
0
 10
-401.8869559999999979
 20
299.4274500000000216
 10
-381.8844560000000001
 20
299.4274500000000216
 10
-381.8844560000000001
 20
296.4288389999999822
 10
-361.8854840000000195
 20
296.4288389999999822
  0
LWPOLYLINE
  5
AB
  8
Calque_1
 62
7
370
-1
  6
ByLayer
100
AcDbEntity
100
AcDbPolyline
 90
2
 70
0
 10
-361.8854840000000195
 20
299.4274500000000216
 10
-361.8854840000000195
 20
296.4288389999999822
  0
LWPOLYLINE
  5
AC
  8
Calque_1
 62
7
370
-1
  6
ByLayer
100
AcDbEntity
100
AcDbPolyline
 90
2
 70
0
 10
-361.8854840000000195
 20
299.4274500000000216
 10
-344.8851230000000214
 20
299.4274500000000216
  0
LWPOLYLINE
  5
AD
  8
Calque_1
 62
7
370
-1
  6
ByLayer
100
AcDbEntity
100
AcDbPolyline
 90
2
 70
0
 10
-438.886289999999974
 20
393.4286159999999768
 10
-421.8859279999999785
 20
393.4286159999999768
  0
LWPOLYLINE
  5
AE
  8
Calque_1
 62
7
370
-1
  6
ByLayer
100
AcDbEntity
100
AcDbPolyline
 90
2
 70
0
 10
-421.8859279999999785
 20
396.4272280000000137
 10
-421.8859279999999785
 20
393.4286159999999768
  0
LWPOLYLINE
  5
AF
  8
Calque_1
 62
7
370
-1
  6
ByLayer
100
AcDbEntity
100
AcDbPolyline
 90
4
 70
0
 10
-421.8859279999999785
 20
396.4272280000000137
 10
-401.8869559999999979
 20
396.4272280000000137
 10
-401.8869559999999979
 20
393.4286159999999768
 10
-381.8844560000000001
 20
393.4286159999999768
  0
LWPOLYLINE
  5
B0
  8
Calque_1
 62
7
370
-1
  6
ByLayer
100
AcDbEntity
100
AcDbPolyline
 90
2
 70
0
 10
-381.8844560000000001
 20
396.4272280000000137
 10
-381.8844560000000001
 20
393.4286159999999768
  0
LWPOLYLINE
  5
B1
  8
Calque_1
 62
7
370
-1
  6
ByLayer
100
AcDbEntity
100
AcDbPolyline
 90
4
 70
0
 10
-381.8844560000000001
 20
396.4272280000000137
 10
-361.8854840000000195
 20
396.4272280000000137
 10
-361.8854840000000195
 20
393.4286159999999768
 10
-344.8851230000000214
 20
393.4286159999999768
  0
LWPOLYLINE
  5
B2
  8
Calque_1
 62
7
370
-1
  6
ByLayer
100
AcDbEntity
100
AcDbPolyline
 90
4
 70
0
 10
-438.886289999999974
 20
299.4274500000000216
 10
-438.886289999999974
 20
316.4278110000000197
 10
-441.8849010000000135
 20
316.4278110000000197
 10
-441.8849010000000135
 20
336.4303110000000174
  0
LWPOLYLINE
  5
B3
  8
Calque_1
 62
7
370
-1
  6
ByLayer
100
AcDbEntity
100
AcDbPolyline
 90
2
 70
0
 10
-438.886289999999974
 20
336.4303110000000174
 10
-441.8849010000000135
 20
336.4303110000000174
  0
LWPOLYLINE
  5
B4
  8
Calque_1
 62
7
370
-1
  6
ByLayer
100
AcDbEntity
100
AcDbPolyline
 90
4
 70
0
 10
-438.886289999999974
 20
336.4303110000000174
 10
-438.886289999999974
 20
356.4292829999999981
 10
-441.8849010000000135
 20
356.4292829999999981
 10
-441.8849010000000135
 20
376.4282549999999787
  0
LWPOLYLINE
  5
B5
  8
Calque_1
 62
7
370
-1
  6
ByLayer
100
AcDbEntity
100
AcDbPolyline
 90
2
 70
0
 10
-438.886289999999974
 20
376.4282549999999787
 10
-441.8849010000000135
 20
376.4282549999999787
  0
LWPOLYLINE
  5
B6
  8
Calque_1
 62
7
370
-1
  6
ByLayer
100
AcDbEntity
100
AcDbPolyline
 90
2
 70
0
 10
-438.886289999999974
 20
376.4282549999999787
 10
-438.886289999999974
 20
393.4286159999999768
  0
LWPOLYLINE
  5
B7
  8
Calque_1
 62
7
370
-1
  6
ByLayer
100
AcDbEntity
100
AcDbPolyline
 90
2
 70
0
 10
-344.8851230000000214
 20
299.4274500000000216
 10
-344.8851230000000214
 20
316.4278110000000197
  0
LWPOLYLINE
  5
B8
  8
Calque_1
 62
7
370
-1
  6
ByLayer
100
AcDbEntity
100
AcDbPolyline
 90
2
 70
0
 10
-341.886511999999982
 20
316.4278110000000197
 10
-344.8851230000000214
 20
316.4278110000000197
  0
LWPOLYLINE
  5
B9
  8
Calque_1
 62
7
370
-1
  6
ByLayer
100
AcDbEntity
100
AcDbPolyline
 90
4
 70
0
 10
-341.886511999999982
 20
316.4278110000000197
 10
-341.886511999999982
 20
336.4303110000000174
 10
-344.8851230000000214
 20
336.4303110000000174
 10
-344.8851230000000214
 20
356.4292829999999981
  0
LWPOLYLINE
  5
BA
  8
Calque_1
 62
7
370
-1
  6
ByLayer
100
AcDbEntity
100
AcDbPolyline
 90
2
 70
0
 10
-341.886511999999982
 20
356.4292829999999981
 10
-344.8851230000000214
 20
356.4292829999999981
  0
LWPOLYLINE
  5
BB
  8
Calque_1
 62
7
370
-1
  6
ByLayer
100
AcDbEntity
100
AcDbPolyline
 90
4
 70
0
 10
-341.886511999999982
 20
356.4292829999999981
 10
-341.886511999999982
 20
376.4282549999999787
 10
-344.8851230000000214
 20
376.4282549999999787
 10
-344.8851230000000214
 20
393.4286159999999768
  0
SPLINE
  5
BC
  8
Calque_1
 62
7
370
-1
  6
ByLayer
100
AcDbEntity
100
AcDbSpline
 70
8
 71
3
 72
8
 73
4
 74
0
 40
0.0
 40
0.0
 40
0.0
 40
0.0
 40
1.0
 40
1.0
 40
1.0
 40
1.0
 10
-367.6226950000000215
 20
351.6619460000000004
 30
0.0
 10
-367.0157199999999875
 20
352.1910449999999742
 30
0.0
 10
-366.0947719999999777
 20
352.1279139999999757
 30
0.0
 10
-365.5656619999999748
 20
351.5209449999999833
 30
0.0
  0
SPLINE
  5
BD
  8
Calque_1
 62
7
370
-1
  6
ByLayer
100
AcDbEntity
100
AcDbSpline
 70
8
 71
3
 72
8
 73
4
 74
0
 40
0.0
 40
0.0
 40
0.0
 40
0.0
 40
1.0
 40
1.0
 40
1.0
 40
1.0
 10
-365.5656619999999748
 20
351.5209449999999833
 30
0.0
 10
-365.0365519999999719
 20
350.9139749999999935
 30
0.0
 10
-365.0996850000000222
 20
349.9930079999999748
 30
0.0
 10
-365.7066599999999994
 20
349.4639119999999934
 30
0.0
  0
SPLINE
  5
BE
  8
Calque_1
 62
7
370
-1
  6
ByLayer
100
AcDbEntity
100
AcDbSpline
 70
8
 71
3
 72
8
 73
4
 74
0
 40
0.0
 40
0.0
 40
0.0
 40
0.0
 40
1.0
 40
1.0
 40
1.0
 40
1.0
 10
-365.7066599999999994
 20
349.4639119999999934
 30
0.0
 10
-366.3136349999999766
 20
348.9348130000000197
 30
0.0
 10
-367.2346109999999726
 20
348.9979400000000282
 30
0.0
 10
-367.7636929999999893
 20
349.604910000000018
 30
0.0
  0
SPLINE
  5
BF
  8
Calque_1
 62
7
370
-1
  6
ByLayer
100
AcDbEntity
100
AcDbSpline
 70
8
 71
3
 72
8
 73
4
 74
0
 40
0.0
 40
0.0
 40
0.0
 40
0.0
 40
1.0
 40
1.0
 40
1.0
 40
1.0
 10
-367.7636929999999893
 20
349.604910000000018
 30
0.0
 10
-368.2904609999999934
 20
350.2091960000000199
 30
0.0
 10
-368.2305450000000064
 20
351.1253929999999741
 30
0.0
 10
-367.6295529999999872
 20
351.6559229999999729
 30
0.0
  0
SPLINE
  5
C0
  8
Calque_1
 62
7
370
-1
  6
ByLayer
100
AcDbEntity
100
AcDbSpline
 70
8
 71
3
 72
8
 73
4
 74
0
 40
0.0
 40
0.0
 40
0.0
 40
0.0
 40
1.0
 40
1.0
 40
1.0
 40
1.0
 10
-367.5184699999999793
 20
342.1132339999999772
 30
0.0
 10
-366.9114950000000022
 20
342.6423320000000103
 30
0.0
 10
-365.9905469999999923
 20
342.5792050000000017
 30
0.0
 10
-365.4614369999999894
 20
341.972235000000012
 30
0.0
  0
SPLINE
  5
C1
  8
Calque_1
 62
7
370
-1
  6
ByLayer
100
AcDbEntity
100
AcDbSpline
 70
8
 71
3
 72
8
 73
4
 74
0
 40
0.0
 40
0.0
 40
0.0
 40
0.0
 40
1.0
 40
1.0
 40
1.0
 40
1.0
 10
-365.4614369999999894
 20
341.972235000000012
 30
0.0
 10
-364.9323269999999866
 20
341.3652630000000272
 30
0.0
 10
-364.99545999999998
 20
340.4442980000000034
 30
0.0
 10
-365.602435000000014
 20
339.9151989999999728
 30
0.0
  0
SPLINE
  5
C2
  8
Calque_1
 62
7
370
-1
  6
ByLayer
100
AcDbEntity
100
AcDbSpline
 70
8
 71
3
 72
8
 73
4
 74
0
 40
0.0
 40
0.0
 40
0.0
 40
0.0
 40
1.0
 40
1.0
 40
1.0
 40
1.0
 10
-365.602435000000014
 20
339.9151989999999728
 30
0.0
 10
-366.2094109999999887
 20
339.386099999999999
 30
0.0
 10
-367.1303859999999872
 20
339.4492280000000051
 30
0.0
 10
-367.6594680000000039
 20
340.0561999999999898
 30
0.0
  0
SPLINE
  5
C3
  8
Calque_1
 62
7
370
-1
  6
ByLayer
100
AcDbEntity
100
AcDbSpline
 70
8
 71
3
 72
8
 73
4
 74
0
 40
0.0
 40
0.0
 40
0.0
 40
0.0
 40
1.0
 40
1.0
 40
1.0
 40
1.0
 10
-367.6594680000000039
 20
340.0561999999999898
 30
0.0
 10
-368.1862360000000081
 20
340.6604829999999993
 30
0.0
 10
-368.1263200000000211
 20
341.5766840000000002
 30
0.0
 10
-367.5253280000000018
 20
342.107213999999999
 30
0.0
  0
SPLINE
  5
C4
  8
Calque_1
 62
7
370
-1
  6
ByLayer
100
AcDbEntity
100
AcDbSpline
 70
8
 71
3
 72
8
 73
4
 74
0
 40
0.0
 40
0.0
 40
0.0
 40
0.0
 40
1.0
 40
1.0
 40
1.0
 40
1.0
 10
-417.8464539999999943
 20
351.6853669999999852
 30
0.0
 10
-417.2394780000000196
 20
352.2144660000000158
 30
0.0
 10
-416.3185310000000072
 20
352.1513390000000072
 30
0.0
 10
-415.7894200000000069
 20
351.544366000000025
 30
0.0
  0
SPLINE
  5
C5
  8
Calque_1
 62
7
370
-1
  6
ByLayer
100
AcDbEntity
100
AcDbSpline
 70
8
 71
3
 72
8
 73
4
 74
0
 40
0.0
 40
0.0
 40
0.0
 40
0.0
 40
1.0
 40
1.0
 40
1.0
 40
1.0
 10
-415.7894200000000069
 20
351.544366000000025
 30
0.0
 10
-415.260310000000004
 20
350.9373969999999758
 30
0.0
 10
-415.3234429999999975
 20
350.0164320000000089
 30
0.0
 10
-415.9304189999999721
 20
349.4873329999999783
 30
0.0
  0
SPLINE
  5
C6
  8
Calque_1
 62
7
370
-1
  6
ByLayer
100
AcDbEntity
100
AcDbSpline
 70
8
 71
3
 72
8
 73
4
 74
0
 40
0.0
 40
0.0
 40
0.0
 40
0.0
 40
1.0
 40
1.0
 40
1.0
 40
1.0
 10
-415.9304189999999721
 20
349.4873329999999783
 30
0.0
 10
-416.5373940000000061
 20
348.9582340000000045
 30
0.0
 10
-417.4583700000000022
 20
349.0213620000000105
 30
0.0
 10
-417.9874520000000189
 20
349.6283320000000003
 30
0.0
  0
SPLINE
  5
C7
  8
Calque_1
 62
7
370
-1
  6
ByLayer
100
AcDbEntity
100
AcDbSpline
 70
8
 71
3
 72
8
 73
4
 74
0
 40
0.0
 40
0.0
 40
0.0
 40
0.0
 40
1.0
 40
1.0
 40
1.0
 40
1.0
 10
-417.9874520000000189
 20
349.6283320000000003
 30
0.0
 10
-418.514220000000023
 20
350.2326170000000047
 30
0.0
 10
-418.4543039999999792
 20
351.1488150000000132
 30
0.0
 10
-417.8533120000000167
 20
351.6793480000000045
 30
0.0
  0
SPLINE
  5
C8
  8
Calque_1
 62
7
370
-1
  6
ByLayer
100
AcDbEntity
100
AcDbSpline
 70
8
 71
3
 72
8
 73
4
 74
0
 40
0.0
 40
0.0
 40
0.0
 40
0.0
 40
1.0
 40
1.0
 40
1.0
 40
1.0
 10
-417.7422290000000089
 20
342.1366550000000188
 30
0.0
 10
-417.1352539999999749
 20
342.6657539999999926
 30
0.0
 10
-416.2143060000000219
 20
342.602626999999984
 30
0.0
 10
-415.685196000000019
 20
341.9956569999999942
 30
0.0
  0
SPLINE
  5
C9
  8
Calque_1
 62
7
370
-1
  6
ByLayer
100
AcDbEntity
100
AcDbSpline
 70
8
 71
3
 72
8
 73
4
 74
0
 40
0.0
 40
0.0
 40
0.0
 40
0.0
 40
1.0
 40
1.0
 40
1.0
 40
1.0
 10
-415.685196000000019
 20
341.9956569999999942
 30
0.0
 10
-415.1560860000000162
 20
341.388684000000012
 30
0.0
 10
-415.2192190000000096
 20
340.4677199999999857
 30
0.0
 10
-415.8261939999999868
 20
339.9386210000000119
 30
0.0
  0
SPLINE
  5
CA
  8
Calque_1
 62
7
370
-1
  6
ByLayer
100
AcDbEntity
100
AcDbSpline
 70
8
 71
3
 72
8
 73
4
 74
0
 40
0.0
 40
0.0
 40
0.0
 40
0.0
 40
1.0
 40
1.0
 40
1.0
 40
1.0
 10
-415.8261939999999868
 20
339.9386210000000119
 30
0.0
 10
-416.4331690000000208
 20
339.4095219999999813
 30
0.0
 10
-417.3541169999999738
 20
339.4726499999999874
 30
0.0
 10
-417.8832269999999767
 20
340.0796189999999797
 30
0.0
  0
SPLINE
  5
CB
  8
Calque_1
 62
7
370
-1
  6
ByLayer
100
AcDbEntity
100
AcDbSpline
 70
8
 71
3
 72
8
 73
4
 74
0
 40
0.0
 40
0.0
 40
0.0
 40
0.0
 40
1.0
 40
1.0
 40
1.0
 40
1.0
 10
-417.8832269999999767
 20
340.0796189999999797
 30
0.0
 10
-418.4099669999999946
 20
340.6839049999999816
 30
0.0
 10
-418.3500789999999938
 20
341.6001029999999901
 30
0.0
 10
-417.7490869999999745
 20
342.1306349999999838
 30
0.0
  0
LWPOLYLINE
  5
CC
  8
Calque_1
 62
7
370
-1
  6
ByLayer
100
AcDbEntity
100
AcDbPolyline
 90
5
 70
0
 10
-412.3493859999999813
 20
356.7346190000000092
 10
-370.5341280000000097
 20
356.7346190000000092
 10
-370.5341280000000097
 20
335.9193619999999783
 10
-412.3493859999999813
 20
335.9193619999999783
 10
-412.3493859999999813
 20
356.7346190000000092
  0
LWPOLYLINE
  5
CD
  8
Calque_1
 62
7
370
-1
  6
ByLayer
100
AcDbEntity
100
AcDbPolyline
 90
5
 70
0
 10
-311.6118000000000166
 20
118.0073459999999983
 10
-299.7621920000000273
 20
118.0073459999999983
 10
-299.7621920000000273
 20
106.1577460000000031
 10
-311.6118000000000166
 20
106.1577460000000031
 10
-311.6118000000000166
 20
118.0073459999999983
  0
ENDSEC
  0
SECTION
  2
OBJECTS
  0
DICTIONARY
  5
C
100
AcDbDictionary
280
0
281
1
  3
ACAD_GROUP
350
D
  3
ACAD_LAYOUT
350
1A
  3
ACAD_MLINESTYLE
350
17
  3
ACAD_PLOTSETTINGS
350
19
  3
ACAD_PLOTSTYLENAME
350
E
  3
AcDbVariableDictionary
350
CE
  0
DICTIONARY
  5
D
100
AcDbDictionary
280
0
281
1
  0
ACDBDICTIONARYWDFLT
  5
E
100
AcDbDictionary
281
1
  3
Normal
350
F
100
AcDbDictionaryWithDefault
340
F
  0
ACDBPLACEHOLDER
  5
F
  0
DICTIONARY
  5
17
100
AcDbDictionary
280
0
281
1
  3
Standard
350
18
  0
MLINESTYLE
  5
18
100
AcDbMlineStyle
  2
STANDARD
 70
0
  3

 62
256
 51
90.0
 52
90.0
 71
2
 49
0.5
 62
256
  6
BYLAYER
 49
-0.5
 62
256
  6
BYLAYER
  0
DICTIONARY
  5
19
100
AcDbDictionary
280
0
281
1
  0
DICTIONARY
  5
1A
100
AcDbDictionary
281
1
  3
Layout1
350
1E
  3
Layout2
350
26
  3
Model
350
22
  0
LAYOUT
  5
1E
100
AcDbPlotSettings
  1

  2
C:\Program Files\AutoCAD 2002\plotters\DWF ePlot (optimized for plotting).pc3
  4

  6

 40
0.0
 41
0.0
 42
0.0
 43
0.0
 44
0.0
 45
0.0
 46
0.0
 47
0.0
 48
0.0
 49
0.0
140
0.0
141
0.0
142
1.0
143
1.0
 70
688
 72
0
 73
0
 74
5
  7

 75
16
147
1.0
148
0.0
149
0.0
100
AcDbLayout
  1
Layout1
 70
1
 71
1
 10
0.0
 20
0.0
 11
420.0
 21
297.0
 12
0.0
 22
0.0
 32
0.0
 14
100000000000000000000.0
 24
100000000000000000000.0
 34
100000000000000000000.0
 15
-100000000000000000000.0
 25
-100000000000000000000.0
 35
-100000000000000000000.0
146
0.0
 13
0.0
 23
0.0
 33
0.0
 16
1.0
 26
0.0
 36
0.0
 17
0.0
 27
1.0
 37
0.0
 76
0
330
1B
  0
LAYOUT
  5
22
100
AcDbPlotSettings
  1

  2
C:\Program Files\AutoCAD 2002\plotters\DWF ePlot (optimized for plotting).pc3
  4

  6

 40
0.0
 41
0.0
 42
0.0
 43
0.0
 44
0.0
 45
0.0
 46
0.0
 47
0.0
 48
0.0
 49
0.0
140
0.0
141
0.0
142
1.0
143
1.0
 70
1712
 72
0
 73
0
 74
0
  7

 75
0
147
1.0
148
0.0
149
0.0
100
AcDbLayout
  1
Model
 70
1
 71
0
 10
0.0
 20
0.0
 11
12.0
 21
9.0
 12
0.0
 22
0.0
 32
0.0
 14
0.0
 24
0.0
 34
0.0
 15
0.0
 25
0.0
 35
0.0
146
0.0
 13
0.0
 23
0.0
 33
0.0
 16
1.0
 26
0.0
 36
0.0
 17
0.0
 27
1.0
 37
0.0
 76
0
330
1F
  0
LAYOUT
  5
26
100
AcDbPlotSettings
  1

  2
C:\Program Files\AutoCAD 2002\plotters\DWF ePlot (optimized for plotting).pc3
  4

  6

 40
0.0
 41
0.0
 42
0.0
 43
0.0
 44
0.0
 45
0.0
 46
0.0
 47
0.0
 48
0.0
 49
0.0
140
0.0
141
0.0
142
1.0
143
1.0
 70
688
 72
0
 73
0
 74
5
  7

 75
16
147
1.0
148
0.0
149
0.0
100
AcDbLayout
  1
Layout2
 70
1
 71
2
 10
0.0
 20
0.0
 11
12.0
 21
9.0
 12
0.0
 22
0.0
 32
0.0
 14
0.0
 24
0.0
 34
0.0
 15
0.0
 25
0.0
 35
0.0
146
0.0
 13
0.0
 23
0.0
 33
0.0
 16
1.0
 26
0.0
 36
0.0
 17
0.0
 27
1.0
 37
0.0
 76
0
330
23
  0
DICTIONARY
  5
CE
100
AcDbDictionary
281
1
  3
DIMASSOC
350
D0
  3
HIDETEXT
350
CF
  0
DICTIONARYVAR
  5
CF
100
DictionaryVariables
280
0
  1
2
  0
DICTIONARYVAR
  5
D0
100
DictionaryVariables
280
0
  1
1
  0
ENDSEC
  0
EOF
